<svg xmlns="http://www.w3.org/2000/svg" width="512" height="512" viewBox="0 0 512 512" role="img" aria-labelledby="mo-sheets-title mo-sheets-desc">
  <title id="mo-sheets-title">MimOffice Sheets</title>
  <desc id="mo-sheets-desc">MIMI, the MimOS mascot, on a Calma-mint tile with a grid badge, for the MimOffice spreadsheet application.</desc>
  <defs>
    <linearGradient id="tileSheets" x1="0" y1="0" x2="1" y2="1">
      <stop offset="0" stop-color="#8EE6D8"/>
      <stop offset="1" stop-color="#3DA895"/>
    </linearGradient>
  </defs>
  <rect x="8" y="8" width="496" height="496" rx="112" fill="url(#tileSheets)"/>
  <svg x="60" y="52" width="392" height="392" viewBox="11 5 490 490">
    <g fill="none" stroke="#F8F4FF" stroke-width="38" stroke-linecap="round">
      <path d="M176 236C130 232 98 236 84 250 44 276 40 332 96 358c36 16 80 22 112 10"/>
      <path d="M336 236c46-4 78 0 92 14 40 26 44 82-12 108-36 16-80 22-112 10"/>
    </g>
    <path d="M256 405C200 350 106 268 106 195c0-65 46-100 90-100 30 0 52 23 60 50 8-27 30-50 60-50 44 0 90 35 90 100 0 73-94 155-150 210z" fill="#F8F4FF"/>
    <g fill="none" stroke="#F8F4FF" stroke-width="38" stroke-linecap="round">
      <path d="M96 358c36 16 80 22 112 10"/>
      <path d="M416 358c-36 16-80 22-112 10"/>
    </g>
    <g fill="#1E6B5E">
      <circle cx="214" cy="222" r="11"/>
      <circle cx="298" cy="222" r="11"/>
    </g>
    <path d="M221 250c7 30 67 30 74 0" fill="none" stroke="#1E6B5E" stroke-width="12" stroke-linecap="round"/>
  </svg>
  <g transform="translate(340 340)">
    <circle r="72" fill="#F8F4FF"/>
    <g stroke="#1E6B5E" stroke-width="8" fill="none">
      <rect x="-32" y="-32" width="64" height="64" rx="6"/>
      <line x1="-32" y1="-8" x2="32" y2="-8"/>
      <line x1="-32" y1="16" x2="32" y2="16"/>
      <line x1="-8" y1="-32" x2="-8" y2="32"/>
    </g>
  </g>
</svg>
